<svg width="888" height="665" viewBox="0 0 888 665" fill="none" xmlns="http://www.w3.org/2000/svg">
<g clip-path="url(#clip0)">
<g clip-path="url(#clip1)">
<rect width="888" height="665" fill="white"/>
<path d="M851.716 590.493L855.039 577.387C860.93 574.89 866.958 572.727 873.094 570.909L873.513 577L875.215 570.29C882.824 568.117 888 567.16 888 567.16C888 567.16 881.008 593.749 866.343 614.076L849.254 617.078L862.53 618.992C860.684 621.212 858.701 623.314 856.591 625.285C835.257 645.088 811.495 654.173 803.517 645.578C795.539 636.983 806.367 613.962 827.701 594.16C834.314 588.021 842.623 583.094 850.939 579.217L851.716 590.493Z" fill="#66867A"/>
<path d="M820.113 576.26L816.183 563.324C819.936 558.141 823.979 553.173 828.291 548.446L831.799 553.443L829.787 546.819C835.177 541.026 839.114 537.531 839.114 537.531C839.114 537.531 846.872 563.907 844.825 588.888L831.748 600.291L844.102 595.067C843.669 597.922 843.058 600.746 842.271 603.524C834.244 631.503 818.599 651.564 807.327 648.33C796.055 645.096 793.424 619.793 801.451 591.813C803.939 583.139 808.505 574.627 813.62 567.01L820.113 576.26Z" fill="#3C6B5A"/>
<path d="M886 647.397H370V649.397H886V647.397Z" fill="#3F3D56"/>
<path d="M234.218 371.375C227.234 361.008 224.232 342.595 237.221 333.521C243.662 329.02 251.483 329.569 258.253 331.55C267.617 334.289 275.945 339.873 283.148 346.121C291.457 353.327 298.57 361.775 305.585 370.227C312.509 378.571 319.527 386.818 326.888 394.771C341.396 410.437 356.885 425.165 373.263 438.865C389.314 452.307 406.193 464.727 423.802 476.051C432.545 481.668 441.474 486.999 450.59 492.044C459.054 496.908 467.808 501.248 476.803 505.04C488.767 509.851 509.267 516.575 519.877 503.079C525.503 495.923 525.784 486.212 524.514 478.056C522.978 468.194 519.105 458.992 515.29 450.003C497.542 408.19 479.587 366.478 461.734 324.716C457.568 314.97 453.277 305.26 449.816 295.187C446.575 285.756 443.878 275.812 443.814 265.541C443.758 256.569 445.707 246.445 452.532 239.534C458.192 233.803 466.122 231.906 473.59 231.95C492.078 232.058 509.449 241.468 523.808 251.387C541.648 263.71 557.405 278.68 575.176 291.095C589.525 301.12 606.4 310.205 624.713 311.355C631.734 311.796 639.186 310.86 645.582 307.024C651.697 303.185 656.15 297.194 658.063 290.232C660.461 282.163 660.161 273.64 658.889 265.686C657.3 256.372 654.416 247.327 650.321 238.812C641.663 220.311 629.832 203.732 619.644 186.172C614.648 177.561 609.768 168.686 606.654 159.082C604.016 150.944 601.87 141.313 604.476 132.491C609.854 114.288 631.718 121.137 642.804 126.392C650.314 130.082 657.554 134.298 664.47 139.009C665.959 139.994 667.408 137.382 665.925 136.403C658.665 131.432 651.031 127.032 643.091 123.24C636.333 120.148 628.893 117.45 621.14 117.599C614.629 117.723 608.066 120.451 604.244 126.276C599.723 133.169 600.034 142.08 601.251 149.475C602.861 159.254 606.703 168.288 611.133 176.883C615.799 185.936 621.122 194.591 626.478 203.208C637.18 220.426 648.904 237.846 654.241 257.947C657.975 272.009 660.334 293.972 645.137 304.008C638.391 308.462 630.124 309.107 622.659 308.268C613.638 307.254 605.045 304.255 597.02 300.489C559.599 282.926 534.671 246.458 494.777 232.971C481.212 228.386 462.231 225.458 450.294 237.858C444.093 244.299 441.606 253.242 441.048 261.645C440.379 271.71 442.48 281.615 445.335 290.936C448.503 300.704 452.187 310.297 456.373 319.674C460.846 330.153 465.324 340.63 469.808 351.103L496.992 414.692L510.498 446.286C514.62 455.929 519.038 465.619 521.187 476.072C522.946 484.631 523.445 496.409 515.906 503.295C509.919 508.763 501.171 508.51 494.162 507.24C485.086 505.596 476.547 502.002 468.421 498.037C459.048 493.464 449.923 488.391 440.965 483.114C422.526 472.235 404.826 460.149 387.981 446.935C371.071 433.689 355.024 419.377 339.936 404.087C332.31 396.358 324.941 388.382 317.829 380.16C310.499 371.683 303.616 362.805 296.025 354.562C289.159 347.106 281.642 340.194 272.903 334.936C265.606 330.545 256.98 326.874 248.006 327.163C244.84 327.251 241.729 328.005 238.874 329.375C236.018 330.745 233.484 332.701 231.434 335.115C227.417 340.108 225.247 346.335 225.29 352.743C225.336 359.975 227.568 367.025 231.692 372.966C232.69 374.447 235.22 372.863 234.218 371.375V371.375Z" fill="#A8A8A8"/>
<path d="M107 20H17V100H107V20Z" fill="#E6E6E6"/>
<path d="M107 212H17V292H107V212Z" fill="#E6E6E6"/>
<path d="M107 116H17V196H107V116Z" fill="#F56565"/>
<path d="M107 308H17V388H107V308Z" fill="#E6E6E6"/>
<path d="M107 404H17V484H107V404Z" fill="#F56565"/>
<path d="M320 20H230V100H320V20Z" fill="#F56565"/>
<path d="M533 20H442V100H533V20Z" fill="#F56565"/>
<path d="M320 212H230V292H320V212Z" fill="#E6E6E6"/>
<path d="M533 212H442V292H533V212Z" fill="#E6E6E6"/>
<path d="M320 116H230V196H320V116Z" fill="#E6E6E6"/>
<path d="M533 116H442V196H533V116Z" fill="#E6E6E6"/>
<path d="M320 308H230V388H320V308Z" fill="#4299E1"/>
<path d="M533 308H442V388H533V308Z" fill="#F1E2AC"/>
<path d="M320 404H230V484H320V404Z" fill="#E6E6E6"/>
<path d="M533 404H442V484H533V404Z" fill="#E6E6E6"/>
<path d="M214 20H123V100H214V20Z" fill="#E6E6E6"/>
<path d="M426 20H336V100H426V20Z" fill="#E6E6E6"/>
<path d="M214 212H123V292H214V212Z" fill="#F56565"/>
<path d="M426 212H336V292H426V212Z" fill="#F56565"/>
<path d="M214 116H123V196H214V116Z" fill="#4299E1"/>
<path d="M426 116H336V196H426V116Z" fill="#4299E1"/>
<path d="M214 308H123V388H214V308Z" fill="#4299E1"/>
<path d="M426 308H336V388H426V308Z" fill="#E6E6E6"/>
<path d="M214 404H123V484H214V404Z" fill="#E6E6E6"/>
<path d="M426 404H336V484H426V404Z" fill="#4299E1"/>
<path d="M679.3 637.138C679.3 637.138 651.348 639.288 654.215 649.322C657.082 659.356 679.3 657.922 679.3 657.922C679.3 657.922 696.501 656.489 705.819 659.356C715.136 662.223 725.887 659.356 726.603 654.339C727.32 649.322 721.586 645.738 721.586 645.738L718.003 638.571L679.3 637.138Z" fill="#2F2E41"/>
<path d="M605.837 413.165L602.97 424.632C602.97 424.632 590.069 451.151 605.837 451.151C621.605 451.151 615.871 426.783 615.871 426.783L617.304 415.315L605.837 413.165Z" fill="#9F616A"/>
<path d="M744.163 403.848L747.03 415.315C747.03 415.315 759.931 441.834 744.163 441.834C728.395 441.834 734.129 417.465 734.129 417.465L732.695 405.998L744.163 403.848Z" fill="#9F616A"/>
<path d="M669.624 208.901C686.645 208.901 700.443 195.103 700.443 178.082C700.443 161.062 686.645 147.264 669.624 147.264C652.604 147.264 638.806 161.062 638.806 178.082C638.806 195.103 652.604 208.901 669.624 208.901Z" fill="#9F616A"/>
<path d="M660.308 201.734C660.308 201.734 663.891 218.218 661.741 226.102C659.591 233.986 706.177 224.669 706.177 224.669C706.177 224.669 689.693 197.434 690.41 196.717L660.308 201.734Z" fill="#9F616A"/>
<path d="M667.474 220.368C667.474 220.368 654.573 216.785 650.273 221.085C645.973 225.385 620.888 237.569 620.888 237.569L638.089 342.926L712.627 326.442L725.528 226.819C725.528 226.819 705.204 214.901 701.748 217.276C698.293 219.652 667.474 220.368 667.474 220.368Z" fill="#90CDF4"/>
<path d="M626.621 238.286L623.181 236.441C623.181 236.441 610.137 239.003 610.854 249.037C611.57 259.071 614.437 314.975 614.437 314.975L602.97 416.032L623.754 419.615L644.539 335.043L626.621 238.286Z" fill="#90CDF4"/>
<path d="M723.378 228.969L726.818 227.124C726.818 227.124 739.862 229.686 739.146 239.72C738.429 249.754 735.562 305.657 735.562 305.657L747.029 406.714L726.245 410.298L705.46 325.725L723.378 228.969Z" fill="#90CDF4"/>
<path d="M638.806 332.176L635.939 375.895L626.622 463.334L640.24 644.663L687.543 646.097L673.209 473.368L687.543 413.881L734.397 412.146C734.397 412.146 737.713 343.643 711.194 322.142L638.806 332.176Z" fill="#2F2E41"/>
<path d="M690.409 403.847L682.884 561.883L680.375 641.797L722.662 646.097L733.331 411.08L716.928 394.53L690.409 403.847Z" fill="#2F2E41"/>
<path d="M683.242 137.229C683.242 137.229 655.29 133.645 647.406 147.263C647.406 147.263 645.256 157.297 638.089 160.88C630.922 164.464 639.523 176.648 641.673 180.232C643.823 183.815 649.557 204.6 643.106 209.617C636.656 214.634 654.574 228.968 654.574 228.968C654.574 228.968 663.174 240.436 656.007 249.036C648.84 257.637 665.324 260.504 665.324 260.504C665.324 260.504 661.741 284.872 668.191 278.422C668.191 278.422 671.058 333.609 698.293 299.206C725.528 264.804 736.996 248.32 725.528 234.702C714.061 221.084 722.661 208.9 722.661 208.9C722.661 208.9 726.245 201.733 718.361 190.982C710.477 180.232 710.477 137.229 683.242 137.229Z" fill="#2F2E41"/>
<path d="M642.747 641.438C642.747 641.438 614.796 643.589 617.662 653.623C620.529 663.657 642.747 662.223 642.747 662.223C642.747 662.223 659.949 660.79 669.266 663.657C678.583 666.524 689.334 663.657 690.051 658.64C690.767 653.623 685.034 650.039 685.034 650.039L681.45 642.872L642.747 641.438Z" fill="#2F2E41"/>
</g>
</g>
<defs>
<clipPath id="clip0">
<rect width="888" height="664.795" fill="white"/>
</clipPath>
<clipPath id="clip1">
<rect width="888" height="665" fill="white"/>
</clipPath>
</defs>
</svg>
